<svg width="300" height="161" viewBox="0 0 300 161" fill="none" xmlns="http://www.w3.org/2000/svg">
<g filter="url(#filter0_d_204_57)">
<path d="M3 149.014C3 153.984 7.02944 158.014 12 158.014H288.342C293.312 158.014 297.342 153.984 297.342 149.014V12C297.342 7.02944 293.312 3 288.342 3H12C7.02944 3 3 7.02944 3 12V149.014Z" fill="white"/>
<path d="M82.941 41.875H86.49V42.772H82.941V41.875ZM82.941 45.593H86.49V46.49H82.941V45.593ZM80.783 40.159C82.486 40.159 83.708 41.758 83.708 44.254C83.708 46.763 82.486 48.362 80.783 48.362C79.067 48.362 77.858 46.763 77.858 44.254C77.858 41.758 79.067 40.159 80.783 40.159ZM80.783 41.134C79.652 41.134 78.872 42.356 78.872 44.254C78.872 46.165 79.652 47.413 80.783 47.413C81.914 47.413 82.694 46.165 82.694 44.254C82.694 42.356 81.914 41.134 80.783 41.134ZM86.256 39.249H87.322V51.027H86.256V39.249Z" fill="#898989"/>
<path d="M98.475 39.262H99.502V46.698H98.475V39.262ZM96.564 42.447H98.787V43.344H96.564V42.447ZM95.966 39.496H96.98V46.282H95.966V39.496ZM89.544 40.666H95.498V41.524H89.544V40.666ZM92.534 42.122C94.003 42.122 95.03 42.928 95.03 44.137C95.03 45.359 94.003 46.152 92.534 46.152C91.052 46.152 90.025 45.359 90.025 44.137C90.025 42.928 91.052 42.122 92.534 42.122ZM92.534 42.928C91.611 42.928 90.987 43.409 90.987 44.137C90.987 44.878 91.611 45.346 92.534 45.346C93.444 45.346 94.068 44.878 94.068 44.137C94.068 43.409 93.444 42.928 92.534 42.928ZM92.001 39.353H93.054V41.147H92.001V39.353ZM95.654 46.906C98.098 46.906 99.567 47.634 99.567 48.947C99.567 50.247 98.098 50.988 95.654 50.988C93.184 50.988 91.728 50.247 91.728 48.947C91.728 47.634 93.184 46.906 95.654 46.906ZM95.654 47.738C93.847 47.738 92.794 48.167 92.794 48.947C92.794 49.727 93.847 50.169 95.654 50.169C97.435 50.169 98.501 49.727 98.501 48.947C98.501 48.167 97.435 47.738 95.654 47.738Z" fill="#898989"/>
<path d="M110.216 40.484H111.269C111.269 43.877 110.125 46.997 105.913 49.09L105.328 48.258C109.046 46.425 110.216 43.799 110.216 40.601V40.484ZM105.965 40.484H110.853V41.355H105.965V40.484ZM110.047 43.396V44.228L105.549 44.67L105.38 43.708L110.047 43.396ZM113.167 39.249H114.259V51.014H113.167V39.249ZM113.96 44.02H116.131V44.917H113.96V44.02Z" fill="#898989"/>
<path d="M118.522 44.891H126.595V45.775H118.522V44.891ZM117.183 48.531H127.83V49.428H117.183V48.531ZM118.522 40.341H126.478V41.238H119.601V45.281H118.522V40.341Z" fill="#898989"/>
<path d="M129.129 44.722H139.789V45.541H129.129V44.722ZM130.39 46.49H138.45V48.999H131.495V50.377H130.429V48.258H137.397V47.257H130.39V46.49ZM130.429 50.091H138.827V50.871H130.429V50.091ZM130.481 39.6H138.411V42.044H131.573V43.318H130.507V41.316H137.358V40.367H130.481V39.6ZM130.507 43.058H138.632V43.838H130.507V43.058Z" fill="#898989"/>
<path d="M149.528 46.737H150.594V51.027H149.528V46.737ZM144.757 46.36H155.378V47.257H144.757V46.36ZM149.515 41.277H150.464V41.576C150.464 43.604 148.267 45.099 145.797 45.476L145.42 44.618C147.539 44.332 149.515 43.045 149.515 41.576V41.277ZM149.658 41.277H150.594V41.576C150.594 43.032 152.583 44.332 154.689 44.618L154.299 45.476C151.842 45.112 149.658 43.578 149.658 41.576V41.277ZM145.784 40.705H154.351V41.589H145.784V40.705ZM149.528 39.262H150.594V41.017H149.528V39.262Z" fill="#898989"/>
<path d="M164.659 39.249H165.751V51.014H164.659V39.249ZM165.452 44.02H167.623V44.917H165.452V44.02ZM161.656 40.523H162.709C162.709 43.864 161.175 46.88 157.379 48.791L156.781 47.959C160.031 46.308 161.656 43.799 161.656 40.692V40.523ZM157.327 40.523H162.215V41.407H157.327V40.523Z" fill="#898989"/>
<path d="M168.649 41.264H174.473V42.148H168.649V41.264ZM171.561 42.928C173.03 42.928 174.096 44.033 174.096 45.619C174.096 47.192 173.03 48.297 171.561 48.297C170.105 48.297 169.039 47.192 169.039 45.619C169.039 44.033 170.105 42.928 171.561 42.928ZM171.561 43.851C170.664 43.851 170.014 44.579 170.014 45.619C170.014 46.659 170.664 47.387 171.561 47.387C172.471 47.387 173.134 46.659 173.134 45.619C173.134 44.579 172.471 43.851 171.561 43.851ZM177.58 39.262H178.62V51.014H177.58V39.262ZM175.708 44.202H177.931V45.099H175.708V44.202ZM175.071 39.522H176.085V50.442H175.071V39.522ZM171.041 39.6H172.107V41.81H171.041V39.6Z" fill="#898989"/>
<path d="M188.997 40.419H189.933V40.913C189.933 43.019 187.697 44.566 185.331 44.969L184.915 44.111C186.982 43.812 188.997 42.46 188.997 40.913V40.419ZM189.27 40.419H190.193V40.913C190.193 42.46 192.221 43.812 194.275 44.111L193.872 44.969C191.493 44.566 189.27 43.019 189.27 40.913V40.419ZM189.036 46.529H190.102V51.014H189.036V46.529ZM184.291 45.957H194.912V46.841H184.291V45.957ZM185.279 39.99H193.885V40.861H185.279V39.99Z" fill="#898989"/>
<path d="M200.878 43.461H203.127V44.358H200.878V43.461ZM198.681 40.367H199.526V42.603C199.526 45.06 198.499 47.439 196.783 48.492L196.107 47.673C197.719 46.724 198.681 44.618 198.681 42.603V40.367ZM198.889 40.367H199.721V42.564C199.721 44.449 200.605 46.451 202.152 47.387L201.528 48.232C199.838 47.192 198.889 44.852 198.889 42.564V40.367ZM205.194 39.262H206.234V51.014H205.194V39.262ZM202.815 39.509H203.829V50.429H202.815V39.509Z" fill="#898989"/>
<path d="M210.809 45.307H211.875V48.83H210.809V45.307ZM215.151 45.307H216.23V48.83H215.151V45.307ZM208.209 48.622H218.856V49.519H208.209V48.622ZM213.513 40.003C215.996 40.003 217.777 41.186 217.777 43.032C217.777 44.865 215.996 46.048 213.513 46.048C211.017 46.048 209.236 44.865 209.236 43.032C209.236 41.186 211.017 40.003 213.513 40.003ZM213.513 40.861C211.628 40.861 210.276 41.719 210.276 43.032C210.276 44.332 211.628 45.19 213.513 45.19C215.398 45.19 216.737 44.332 216.737 43.032C216.737 41.719 215.398 40.861 213.513 40.861Z" fill="#898989"/>
<path d="M221.309 50.0739C221.081 50.0739 220.886 49.9923 220.722 49.8292C220.559 49.6661 220.478 49.4706 220.478 49.2429C220.478 49.0152 220.559 48.8197 220.722 48.6566C220.886 48.4935 221.081 48.4119 221.309 48.4119C221.537 48.4119 221.732 48.4935 221.895 48.6566C222.058 48.8197 222.14 49.0152 222.14 49.2429C222.14 49.3937 222.101 49.5322 222.024 49.6584C221.95 49.7846 221.85 49.8861 221.724 49.9631C221.601 50.0369 221.463 50.0739 221.309 50.0739Z" fill="#898989"/>
<path d="M162.909 65H134.545C132.578 65 131.018 66.5822 131.018 68.5556L131 89.8889C131 91.8622 132.578 93.4444 134.545 93.4444H152.273V89.8889H134.545V79.2222H166.455V68.5556C166.455 66.5822 164.877 65 162.909 65ZM162.909 72.1111H134.545V68.5556H162.909V72.1111ZM170 88.1111V91.6667H164.682V97H161.136V91.6667H155.818V88.1111H161.136V82.7778H164.682V88.1111H170Z" fill="#898989"/>
</g>
<defs>
<filter id="filter0_d_204_57" x="0.5" y="0.5" width="299.342" height="160.014" filterUnits="userSpaceOnUse" color-interpolation-filters="sRGB">
<feFlood flood-opacity="0" result="BackgroundImageFix"/>
<feColorMatrix in="SourceAlpha" type="matrix" values="0 0 0 0 0 0 0 0 0 0 0 0 0 0 0 0 0 0 127 0" result="hardAlpha"/>
<feOffset/>
<feGaussianBlur stdDeviation="1.25"/>
<feComposite in2="hardAlpha" operator="out"/>
<feColorMatrix type="matrix" values="0 0 0 0 0 0 0 0 0 0 0 0 0 0 0 0 0 0 0.25 0"/>
<feBlend mode="normal" in2="BackgroundImageFix" result="effect1_dropShadow_204_57"/>
<feBlend mode="normal" in="SourceGraphic" in2="effect1_dropShadow_204_57" result="shape"/>
</filter>
</defs>
</svg>
