<svg width="800" height="1200" viewBox="0 0 800 1200" fill="none" xmlns="http://www.w3.org/2000/svg">
<g clip-path="url(#clip0_99_50)">
<path d="M0 440C0 417.909 17.9086 400 40 400H760C782.091 400 800 417.909 800 440V531H0V440Z" fill="#AFF8FF"/>
<path d="M0 665H326V1200H40C17.9086 1200 0 1182.09 0 1160V665Z" fill="#C5FFD5"/>
<rect x="470" y="890" width="135" height="310" fill="#C5FFD5"/>
<rect x="470" y="665" width="331" height="153" fill="#FFF1C8"/>
<path d="M678 1200V890H800V1160C800 1182.09 782.091 1200 760 1200H678Z" fill="#FFF1C8"/>
<g filter="url(#filter0_d_99_50)">
<path d="M0 531H800V665H0V531Z" fill="white"/>
<path d="M326 659H470V1200H326V659Z" fill="white"/>
<path d="M470 818H800V890H470V818Z" fill="white"/>
<path d="M604 890H678V1200H604V890Z" fill="white"/>
</g>
<ellipse cx="400" cy="144" rx="104" ry="100" fill="#FFA2A2"/>
<path d="M400 336L490.067 192H309.933L400 336Z" fill="#FFA2A2"/>
<ellipse cx="400" cy="144" rx="34" ry="36" fill="white"/>
</g>
<defs>
<filter id="filter0_d_99_50" x="-23.7" y="498.3" width="853.4" height="722.4" filterUnits="userSpaceOnUse" color-interpolation-filters="sRGB">
<feFlood flood-opacity="0" result="BackgroundImageFix"/>
<feColorMatrix in="SourceAlpha" type="matrix" values="0 0 0 0 0 0 0 0 0 0 0 0 0 0 0 0 0 0 127 0" result="hardAlpha"/>
<feOffset dx="3" dy="-6"/>
<feGaussianBlur stdDeviation="13.35"/>
<feComposite in2="hardAlpha" operator="out"/>
<feColorMatrix type="matrix" values="0 0 0 0 0 0 0 0 0 0 0 0 0 0 0 0 0 0 0.2 0"/>
<feBlend mode="normal" in2="BackgroundImageFix" result="effect1_dropShadow_99_50"/>
<feBlend mode="normal" in="SourceGraphic" in2="effect1_dropShadow_99_50" result="shape"/>
</filter>
<clipPath id="clip0_99_50">
<rect width="800" height="1200" fill="white"/>
</clipPath>
</defs>
</svg>
